<svg width="39" height="38" viewBox="0 0 39 38" fill="none" xmlns="http://www.w3.org/2000/svg">
<path d="M2.61252 35.6249L0.64926 34.7461C0.50898 35.1432 0.466525 35.5755 0.526369 35.9975C0.586214 36.4195 0.746141 36.8154 0.989292 37.1437C1.23244 37.472 1.54981 37.7204 1.90794 37.8627C2.26607 38.005 2.6517 38.036 3.02417 37.9523L2.61252 35.6249ZM12.547 33.4019L13.5476 31.3095L12.8784 30.9058L12.1354 31.072L12.547 33.4019ZM6.04083 25.9278L8.00408 26.8065L8.34818 25.8233L7.93442 24.8757L6.04083 25.9278ZM34.2779 18.9999C34.2779 26.7091 28.2552 33.2499 20.4929 33.2499V37.9998C30.2902 37.9998 38.5 29.6541 38.5 18.9999H34.2779ZM6.71002 18.9999C6.71002 11.2907 12.7349 4.74998 20.495 4.74998V0C10.6978 0 2.48585 8.34572 2.48585 18.9999H6.71002ZM20.495 4.74998C28.2552 4.74998 34.2779 11.2907 34.2779 18.9999H38.5C38.5 8.34572 30.2923 0 20.495 0V4.74998ZM20.4929 33.2499C17.9491 33.2499 15.5806 32.5374 13.5476 31.3095L11.5464 35.4919C14.2977 37.1513 17.3712 38.0132 20.4929 37.9998V33.2499ZM3.02417 37.9523L12.9587 35.7294L12.1354 31.072L2.20087 33.295L3.02417 37.9547V37.9523ZM7.93442 24.8757C7.13075 23.0487 6.71322 21.0384 6.71002 18.9999H2.48585C2.48585 21.8499 3.08116 24.5527 4.14512 26.9799L7.93442 24.8757ZM4.07968 25.049L0.64926 34.7485L4.57155 36.5012L7.99986 26.8041L4.07757 25.049H4.07968Z" fill="#F9F8F8"/>
<path d="M13.1677 21.3749C14.3336 21.3749 15.2787 20.3116 15.2787 18.9999C15.2787 17.6883 14.3336 16.6249 13.1677 16.6249C12.0018 16.6249 11.0566 17.6883 11.0566 18.9999C11.0566 20.3116 12.0018 21.3749 13.1677 21.3749Z" fill="#F9F8F8"/>
<path d="M20.5563 21.3749C21.7222 21.3749 22.6674 20.3116 22.6674 18.9999C22.6674 17.6883 21.7222 16.6249 20.5563 16.6249C19.3905 16.6249 18.4453 17.6883 18.4453 18.9999C18.4453 20.3116 19.3905 21.3749 20.5563 21.3749Z" fill="#F9F8F8"/>
<path d="M27.9449 21.3749C29.1108 21.3749 30.0559 20.3116 30.0559 18.9999C30.0559 17.6883 29.1108 16.6249 27.9449 16.6249C26.779 16.6249 25.8339 17.6883 25.8339 18.9999C25.8339 20.3116 26.779 21.3749 27.9449 21.3749Z" fill="#F9F8F8"/>
</svg>
